<svg width="24" height="24" viewBox="0 0 24 24" fill="none" xmlns="http://www.w3.org/2000/svg">
<path id="Vector" d="M16.2302 10.9972C15.9993 10.9972 15.7737 11.0656 15.5818 11.1938C15.3899 11.3221 15.2403 11.5043 15.152 11.7176C15.0637 11.9308 15.0405 12.1655 15.0856 12.3918C15.1306 12.6182 15.2417 12.8262 15.405 12.9894C15.5682 13.1526 15.7761 13.2637 16.0025 13.3088C16.2289 13.3538 16.4635 13.3307 16.6767 13.2423C16.89 13.154 17.0722 13.0044 17.2005 12.8125C17.3287 12.6206 17.3972 12.395 17.3972 12.1642C17.3972 11.8547 17.2742 11.5578 17.0553 11.339C16.8365 11.1201 16.5397 10.9972 16.2302 10.9972ZM9.73015 12.1642C9.73015 11.9333 9.66168 11.7077 9.53341 11.5157C9.40513 11.3238 9.22281 11.1742 9.00951 11.0859C8.79621 10.9976 8.56152 10.9746 8.33511 11.0197C8.10871 11.0648 7.90077 11.176 7.7376 11.3393C7.57444 11.5026 7.46337 11.7107 7.41845 11.9371C7.37354 12.1636 7.39679 12.3982 7.48527 12.6115C7.57375 12.8247 7.72349 13.0069 7.91553 13.135C8.10757 13.2631 8.3333 13.3314 8.56415 13.3312C8.87349 13.3309 9.17006 13.2078 9.3887 12.989C9.60734 12.7702 9.73015 12.4735 9.73015 12.1642ZM14.8932 15.4042C14.5749 15.7464 14.1897 16.0195 13.7614 16.2064C13.3331 16.3933 12.871 16.4901 12.4037 16.4908C11.9364 16.4915 11.4739 16.3959 11.0451 16.2102C10.6163 16.0245 10.2303 15.7525 9.91115 15.4112C9.74459 15.2047 9.50284 15.0729 9.23907 15.0446C8.9753 15.0164 8.71112 15.0941 8.50465 15.2607C8.29818 15.4272 8.16633 15.669 8.13811 15.9328C8.10988 16.1965 8.1876 16.4607 8.35415 16.6672C8.86059 17.2405 9.48314 17.6997 10.1805 18.0142C10.8779 18.3286 11.6341 18.4913 12.3992 18.4913C13.1642 18.4913 13.9204 18.3286 14.6178 18.0142C15.3152 17.6997 15.9377 17.2405 16.4442 16.6672C16.6041 16.4609 16.6771 16.2002 16.6474 15.9409C16.6178 15.6815 16.4879 15.4441 16.2856 15.2792C16.0832 15.1143 15.8244 15.035 15.5644 15.0584C15.3044 15.0818 15.0639 15.2059 14.8942 15.4042H14.8932ZM12.4002 0.503174C10.1257 0.503174 7.90226 1.17764 6.01109 2.44127C4.11993 3.70491 2.64594 5.50096 1.77554 7.60231C0.905129 9.70366 0.677391 12.0159 1.12112 14.2467C1.56485 16.4775 2.66012 18.5266 4.26842 20.1349C5.87673 21.7432 7.92583 22.8385 10.1566 23.2822C12.3874 23.7259 14.6997 23.4982 16.801 22.6278C18.9024 21.7574 20.6984 20.2834 21.9621 18.3922C23.2257 16.5011 23.9002 14.2777 23.9002 12.0032C23.8967 8.95424 22.684 6.03117 20.5281 3.87525C18.3722 1.71932 15.4491 0.506615 12.4002 0.503174ZM12.4002 21.5032C10.5212 21.5032 8.6845 20.946 7.12223 19.9021C5.55997 18.8583 4.34233 17.3746 3.6233 15.6387C2.90426 13.9028 2.71613 11.9926 3.08269 10.1498C3.44925 8.307 4.35404 6.61426 5.68264 5.28566C7.01124 3.95706 8.70397 3.05227 10.5468 2.68571C12.3896 2.31915 14.2997 2.50729 16.0356 3.22632C17.7715 3.94535 19.2552 5.16299 20.2991 6.72526C21.343 8.28752 21.9002 10.1243 21.9002 12.0032C21.8975 14.5219 20.8958 16.9367 19.1147 18.7178C17.3337 20.4988 14.9189 21.5005 12.4002 21.5032Z" fill="black"/>
</svg>
