<svg width="8" height="14" viewBox="0 0 8 14" fill="none" xmlns="http://www.w3.org/2000/svg">
<path id="Vector" d="M7.66807 1.00001C7.66816 1.08756 7.65095 1.17427 7.61742 1.25516C7.5839 1.33605 7.53473 1.40951 7.47273 1.47134L1.94207 7.00001L7.47273 12.5287C7.53641 12.5902 7.58719 12.6637 7.62213 12.7451C7.65707 12.8264 7.67546 12.9139 7.67623 13.0024C7.677 13.0909 7.66013 13.1787 7.62661 13.2606C7.59309 13.3426 7.54359 13.417 7.481 13.4796C7.4184 13.5422 7.34397 13.5917 7.26203 13.6252C7.1801 13.6587 7.09232 13.6756 7.0038 13.6748C6.91528 13.6741 6.8278 13.6557 6.74646 13.6207C6.66513 13.5858 6.59156 13.535 6.53007 13.4713L0.527399 7.47134C0.4071 7.34389 0.340088 7.17526 0.340088 7.00001C0.340088 6.82475 0.4071 6.65612 0.527399 6.52867L6.53007 0.528672C6.6233 0.435466 6.74208 0.371996 6.87138 0.346284C7.00068 0.320572 7.1347 0.333775 7.2565 0.384221C7.3783 0.434668 7.48241 0.520094 7.55567 0.629701C7.62892 0.739307 7.66804 0.868173 7.66807 1.00001Z" fill="black"/>
</svg>
