<svg width="25" height="22" viewBox="0 0 25 22" fill="none" xmlns="http://www.w3.org/2000/svg">
    <path id="Vector"
        d="M18.03 0.73999C15.78 0.73999 14.08 1.63999 12.73 3.53999C11.38 1.68999 9.68004 0.78999 7.43004 0.78999C3.73004 0.73999 0.730042 3.98999 0.730042 7.98999C0.730042 11.64 3.43004 13.99 6.03004 16.24C6.33004 16.49 6.68004 16.79 6.98004 17.09L8.13004 18.09C10.33 20.04 11.43 21.04 11.93 21.34C12.18 21.49 12.48 21.59 12.73 21.59C12.98 21.59 13.28 21.49 13.53 21.34C14.03 21.04 14.93 20.24 17.43 17.94L18.43 17.04C18.78 16.74 19.08 16.44 19.43 16.19C22.08 13.99 24.73 11.69 24.73 7.98999C24.73 3.98999 21.73 0.73999 18.03 0.73999Z"
        fill="#FF3040" />
</svg>