<svg fill="currentColor" width="24" height="22" viewBox="0 0 24 22" xmlns="http://www.w3.org/2000/svg">
    <path id="Vector"
        d="M17.1921 2.90397C18.5065 2.97664 19.7389 3.56587 20.6208 4.54328C21.5027 5.52068 21.9625 6.80701 21.9001 8.12197C21.9001 11.194 19.2481 13.081 16.7031 15.344C14.1911 17.587 12.8381 18.813 12.4001 19.096C11.9231 18.787 10.2571 17.273 8.09707 15.344C5.54107 13.072 2.90007 11.167 2.90007 8.12197C2.83763 6.80701 3.29746 5.52068 4.17933 4.54328C5.0612 3.56587 6.29364 2.97664 7.60807 2.90397C8.33621 2.8819 9.05763 3.04915 9.70178 3.38937C10.3459 3.72959 10.8908 4.23113 11.2831 4.84497C12.1231 6.01997 12.2631 6.60797 12.4031 6.60797C12.5431 6.60797 12.6811 6.01997 13.5131 4.84197C13.9031 4.22529 14.4482 3.72176 15.0938 3.38169C15.7394 3.04161 16.4629 2.87688 17.1921 2.90397ZM17.1921 0.903973C16.284 0.874899 15.3811 1.05106 14.5505 1.41932C13.72 1.78759 12.9832 2.33848 12.3951 3.03097C11.8074 2.3405 11.0722 1.79088 10.2436 1.42272C9.41505 1.05457 8.51435 0.877286 7.60807 0.903973C5.76294 0.976124 4.02145 1.77596 2.76441 3.12857C1.50737 4.48118 0.837062 6.27651 0.900068 8.12197C0.900068 11.732 3.45007 13.949 5.91507 16.092C6.19807 16.338 6.48407 16.586 6.76807 16.839L7.79507 17.757C8.91511 18.8227 10.0893 19.8301 11.3131 20.775C11.6368 20.9846 12.0143 21.0962 12.4001 21.0962C12.7858 21.0962 13.1633 20.9846 13.4871 20.775C14.7498 19.8012 15.9601 18.7614 17.1131 17.66L18.0351 16.836C18.3281 16.576 18.6251 16.317 18.9201 16.062C21.2541 14.037 23.9001 11.742 23.9001 8.12197C23.9631 6.27651 23.2928 4.48118 22.0357 3.12857C20.7787 1.77596 19.0372 0.976124 17.1921 0.903973Z"
        fill="currentColor" />
</svg>